<svg id="Layer_1" data-name="Layer 1" xmlns="http://www.w3.org/2000/svg" width="92.51mm" height="96.04mm" viewBox="0 0 262.22 272.24">
  <defs>
    <style>
      .cls-1 {
        fill: #fff;
      }

      .cls-2 {
        fill: #00aeef;
      }

      .cls-3 {
        fill: #a7a9ac;
        fill-opacity: 0.5;
      }
    </style>
  </defs>
  <title>cp-logo</title>
  <path class="cls-1" d="M67.83,231.73l0.39-.82c2.2,0,4.77-.83,6.52,0,5.06,2.51,8.9,11.14,7.82,16.68a36.81,36.81,0,0,1-2.24,6.86c-0.62,1.51-.33,2.38,1.13,3,3.18,1.24,6.38,2.4,9.52,3.72,2.16,0.9,3.68.56,5.19-1.37a10.82,10.82,0,0,1,3.92-2.81c0.58-.27,1.62.43,2.46,0.69a17.47,17.47,0,0,0-.76,2.14c-0.2.92-.71,2.22-0.3,2.74,1.9,2.43,5,2.7,7.57,1a12.83,12.83,0,0,1,2.54-1.56c2.22-.81,4.41-0.85,6.27.58l-2.21,2.73c1.1,0.4,2.2.83,3.32,1.18a2.44,2.44,0,0,0,1.24,0c4.2-1,7.5.74,10.85,3a13.41,13.41,0,0,0,9.43,2.62c3.69-.49,4.46-1.94,2.85-5.17-1.9-3.81-1.12-9.71,1.72-12.07l2.83,3.29c1-2.53,1.88-4.64,2.78-6.73,1.44-3.34,3.56-5.58,7.64-4.92a35,35,0,0,0,4,.05A23.5,23.5,0,0,0,176,242.93a60.73,60.73,0,0,1,19.68-7.62c8.12-1.65,16.3-3,24.38-4.85,4.8-1.07,8.54-3.89,9.82-8.91,1.12-4.42,1.9-8.93,2.72-13.42,1.4-7.66,1.82-9.13,9.87-9.74s12.24-9.7,7.5-16.54a8.4,8.4,0,0,1-1.19-6.93c0.67-2.91,1.85-5.71,2.4-8.64,0.73-3.89,1.15-7.85,1.49-11.8,0.07-.75-0.83-1.58-1.29-2.37a9,9,0,0,0-1.52,2.33c-0.48,1.76-.6,3.62-1,5.39a2.35,2.35,0,0,1-1.31,1.49c-6.52,1.8-6.72,1.67-9.28-4.8-0.09-.23-0.19-0.46-0.3-0.69-1.83-3.64-1.36-7,1-10.31s4.14-7.07,3.73-11.4c-0.16-1.67.73-2.49,2.14-3.24,5.54-2.94,10.44-6.52,12.54-12.88a4.58,4.58,0,0,1,2.16-2.2c2.37-1.26,3-3.21,2.64-5.64a17,17,0,0,0-.85-3.39C257,95.35,249.85,86,240.53,78.28a5.72,5.72,0,0,1-2.43-4.83c0-8.41-.12-16.83-0.23-25.24-0.05-3.75-.11-7.5-0.29-11.24-0.17-3.51-.94-4.17-4.42-4.21-2.67,0-5.34-.19-8,0-1.32.08-2.57,0.85-3.9,1.15-0.82.18-2,.42-2.52,0-2.68-1.92-4.87-1.5-6.44,1.46-0.5,1-1,1.9-1.56,2.83-0.91,1.56-1.68,1.44-2.74,0a23.69,23.69,0,0,1-4.52-18.8c0.28-1.61-.28-2.75-2.15-3-2.31-.26-4.64-0.51-6.91-1-5.35-1.15-10.87-1.89-15.94-3.8-6.15-2.33-12.06-3.56-18.39-1.23-4.47,1.64-8.94,1.2-13.52.24-7.64-1.59-15.37-2.79-23-4.31a6.36,6.36,0,0,1-3.2-2.07A3.16,3.16,0,0,0,116,3.34c-7,3.29-14.2,2.9-21.43,1a8.27,8.27,0,0,1-3.93-2.06c-2-2.19-4.38-2.45-7-2.26a29.47,29.47,0,0,1-4,0C77.69,0,76.87.56,76.55,2.66a36.28,36.28,0,0,1-2.42,8.82c-1.77,4.13-4,8-3.44,12.81a16.85,16.85,0,0,1-.17,5.23A67.12,67.12,0,0,1,56.8,59.1C46.43,71.89,33.48,81.81,20.37,91.55c-1.19.89-2.11,0.84-3-.23-1.52-1.78-3.21-1.65-5.17-.74-5.46,2.54-6.52,7.51-7.44,12.73a19,19,0,0,1-2.43,6.94A10.24,10.24,0,0,0,.55,116C0.38,131.27.12,146.5,0,161.73a3.66,3.66,0,0,0,1.43,2.85c5.08,2.36,7.07,6.77,8.34,11.75,0.81,3.2,1.27,6.44,4.39,8.62,1.11,0.77,1.61,2.69,2,4.19,0.42,1.85.22,3.83,0.63,5.68a6.73,6.73,0,0,0,1.77,2.51c0.46,0.53,1.62,1,1.56,1.34-0.72,3.6,2.21,4.62,4.32,5.94a26.46,26.46,0,0,1,10.08,10.5c2.43,5,6,7.38,11.19,8.17,1.14,0.18,2.25.61,3.38,0.87,4,0.91,8,2.32,11.9-.73,1.87-1.47,3.55-.29,4.59,1.41a17.71,17.71,0,0,1,1.27,3.74Z"/>
  <path class="cls-2" d="M67.83,231.73l-1-3.15a17.71,17.71,0,0,0-1.27-3.74c-1-1.7-2.71-2.88-4.59-1.41-3.88,3.05-7.87,1.65-11.9.73-1.13-.26-2.24-0.69-3.38-0.87-5.16-.79-8.76-3.15-11.19-8.17a26.46,26.46,0,0,0-10.08-10.5c-2.11-1.32-5-2.34-4.32-5.94,0.06-.32-1.1-0.81-1.56-1.34a6.73,6.73,0,0,1-1.77-2.51c-0.4-1.85-.2-3.84-0.63-5.68-0.34-1.5-.85-3.42-2-4.19-3.12-2.18-3.58-5.42-4.39-8.62-1.26-5-3.26-9.39-8.34-11.75A3.66,3.66,0,0,1,0,161.73C0.12,146.5.38,131.27,0.55,116a10.24,10.24,0,0,1,1.77-5.78,19,19,0,0,0,2.43-6.94c0.92-5.22,2-10.19,7.44-12.73,2-.91,3.65-1,5.17.74,0.91,1.06,1.83,1.11,3,.23C33.48,81.81,46.43,71.89,56.8,59.1A67.12,67.12,0,0,0,70.52,29.52a16.85,16.85,0,0,0,.17-5.23c-0.57-4.77,1.67-8.67,3.44-12.81a36.28,36.28,0,0,0,2.42-8.82C76.87,0.56,77.69,0,79.6.09a29.47,29.47,0,0,0,4,0c2.66-.19,5,0.06,7,2.26a8.27,8.27,0,0,0,3.93,2.06C101.8,6.24,109,6.63,116,3.34a3.16,3.16,0,0,1,4.34.91,6.36,6.36,0,0,0,3.2,2.07c7.66,1.52,15.38,2.72,23,4.31,4.58,1,9.05,1.4,13.52-.24,6.33-2.33,12.24-1.09,18.39,1.23,5.07,1.92,10.59,2.66,15.94,3.8,2.27,0.49,4.6.74,6.91,1,1.87,0.21,2.44,1.35,2.15,3A23.69,23.69,0,0,0,208,38.18c1.06,1.45,1.83,1.57,2.74,0,0.54-.93,1.06-1.88,1.56-2.83,1.57-3,3.76-3.38,6.44-1.46,0.56,0.4,1.7.16,2.52,0,1.32-.3,2.58-1.07,3.9-1.15,2.65-.16,5.33,0,8,0,3.48,0,4.25.7,4.42,4.21,0.18,3.74.24,7.49,0.29,11.24,0.11,8.41.26,16.83,0.23,25.24a5.72,5.72,0,0,0,2.43,4.83c9.32,7.73,16.5,17.07,20.75,28.51a17,17,0,0,1,.85,3.39c0.36,2.43-.28,4.38-2.64,5.64a4.58,4.58,0,0,0-2.16,2.2c-2.11,6.36-7,9.94-12.54,12.88-1.41.75-2.3,1.56-2.14,3.24,0.41,4.33-1.38,8-3.73,11.4s-2.8,6.67-1,10.31c0.11,0.22.21,0.45,0.3,0.69,2.56,6.47,2.76,6.6,9.28,4.8a2.35,2.35,0,0,0,1.31-1.49c0.45-1.77.56-3.63,1-5.39a9,9,0,0,1,1.52-2.33c0.45,0.79,1.36,1.62,1.29,2.37-0.35,3.95-.76,7.91-1.49,11.8-0.55,2.93-1.73,5.73-2.4,8.64a8.4,8.4,0,0,0,1.19,6.93c4.73,6.84.66,15.91-7.5,16.54s-8.47,2.08-9.87,9.74c-0.82,4.49-1.6,9-2.72,13.42-1.27,5-5,7.84-9.82,8.91-8.08,1.81-16.26,3.2-24.38,4.85A60.73,60.73,0,0,0,176,242.93a23.5,23.5,0,0,1-13.72,3.68,35,35,0,0,1-4-.05c-4.08-.67-6.2,1.58-7.64,4.92-0.9,2.09-1.74,4.2-2.78,6.73l-2.83-3.29c-2.84,2.37-3.62,8.26-1.72,12.07,1.61,3.23.84,4.68-2.85,5.17a13.41,13.41,0,0,1-9.43-2.62c-3.34-2.3-6.65-4.06-10.85-3a2.44,2.44,0,0,1-1.24,0c-1.12-.35-2.21-0.78-3.32-1.18l2.21-2.73c-1.87-1.43-4.05-1.39-6.27-.58a12.83,12.83,0,0,0-2.54,1.56c-2.6,1.74-5.67,1.47-7.57-1-0.41-.52.1-1.82,0.3-2.74a17.47,17.47,0,0,1,.76-2.14c-0.83-.26-1.87-1-2.46-0.69a10.82,10.82,0,0,0-3.92,2.81c-1.5,1.93-3,2.27-5.19,1.37-3.14-1.32-6.35-2.48-9.52-3.72-1.46-.57-1.75-1.44-1.13-3a36.81,36.81,0,0,0,2.24-6.86c1.08-5.55-2.76-14.17-7.82-16.68-1.75-.87-4.32-0.07-6.52,0Z"/>
  <path d="M13.13,108.29c0.85-1.36,1.92-2.4,2.1-3.58,0.14-.93-0.76-2.06-1.37-3a3,3,0,0,0-1.81.83C11.56,104.43,11.16,106.44,13.13,108.29Z"/>
  <path d="M149,21.55l0,0.58h8.66V21.55H149Z"/>
  <path class="cls-1" d="M13.13,108.29c-2-1.85-1.57-3.86-1.08-5.75a3,3,0,0,1,1.81-.83c0.6,0.94,1.51,2.07,1.37,3C15,105.89,14,106.93,13.13,108.29Z"/>
  <path class="cls-1" d="M149,21.55h8.63v0.58H149Z"/>
  <g>
    <path d="M210.17,114.62c1.33-4.27-1-8.85-5-9.14a31.76,31.76,0,0,0-10.86.72,102.33,102.33,0,0,0-14.76,6c-5.19,2.43-10.08,5.61-15.89,6.39a5.26,5.26,0,0,1-3.64-1.3c-2.5-2.18-4.54-4.92-7.14-6.94-5.68-4.42-9.91-10-14-15.82A55.41,55.41,0,0,0,120,77.36a39.45,39.45,0,0,0-22.09-5c-2,.15-2.84-0.56-3.34-2.66-0.77-3.2-2.26-6.22-3.29-9.36-0.3-.93-0.42-2.75,0-2.93A8.19,8.19,0,0,1,94.91,57a3.26,3.26,0,0,1,1.28.91,2,2,0,0,0-.47-2c-1.17-1-5.17-.66-6.4.35s-1.66,2.21-1,4.1a93.31,93.31,0,0,1,2.43,10.83c0.35,1.77-.41,3.11-1.74,4.39a74.68,74.68,0,0,0-20.76,34.37c-0.69,2.49-1.14,5-1.71,7.57l0.75,0.18a2.3,2.3,0,0,0,.34-0.61,69.17,69.17,0,0,1,9.48-22.95,67.74,67.74,0,0,1,14.59-17,15.53,15.53,0,0,1,3.11-1.55l0.59,0.84a49.54,49.54,0,0,0-19.18,26.89C80.31,95.4,85,87.94,92.75,82.91c-3.68,5-7.23,10.08-8.6,16.33,4.93-8.6,11-15.8,21-18.58-1.85,2.08-4.09,3.75-6,5.72a48.16,48.16,0,0,0-5.36,6.55,57.17,57.17,0,0,0-4.28,7.61c-1.13,2.39-1.92,5-2.86,7.44,3.13-4.15,5.66-8.55,8.66-12.6a30.94,30.94,0,0,1,11.22-9.49L107,86.37l-3.12,6.77a6.58,6.58,0,0,0,1.91-1.69c3-2.85,5.63-6.35,9.13-8.3,5.42-3,4.67-3.23,9.54.24a53.55,53.55,0,0,1,12.89,13.12c4.31,6.17,9,11.88,15.16,16.43,5.38,4,9.47,9.08,11.17,15.81,0.29,1.15,1.28,2.12,1.85,3.22,1.22,2.36,3.07,4.47,3.26,7.7-5.17-.69-9.85-0.38-14.8,2.42,1.23,0,1.76,0,2.29,0,3.62-.22,7.23-0.61,10.85-0.61a3.44,3.44,0,0,1,3.27,4.32c-0.71,3.39-2.13,6.53-5.43,8-4.93,2.14-10,4-15.09,5.69a44.58,44.58,0,0,1-6.65,1.26c4.09,2.22,8.49,4.22,12.46,6.87A129.87,129.87,0,0,1,170,178.42c4.4,3.91,4.51,6.7,1.77,11.83a4,4,0,0,0-.13,1,7,7,0,0,0,1.1-.8c2.69-3.15,2.93-6.87.71-10.89-2.89-5.23-7.46-8.89-12-12.57-2.55-2.08-5.22-4-8.19-6.25a8.79,8.79,0,0,1,2-1.13c4.6-.85,8.52-3.12,12.45-5.53a9.75,9.75,0,0,1,6.11-1.3,119.26,119.26,0,0,1,15.57,3.51c8.61,2.59,17.22,5.13,26.22,5.73,3.56,0.24,7.17-.29,11.32-0.49L214,149.08l-0.5.36,8.7,10.6a11.61,11.61,0,0,1-2.51.3c-5.75-.77-11.58-1.21-17.22-2.49-8.91-2-17.68-4.67-26.52-7-1.42-.38-3.47-0.06-4.19-0.93s0.08-2.78.05-4.24c-0.1-5.68-2.43-10.6-5.18-15.42a30.52,30.52,0,0,1-2.59-6.16,2.64,2.64,0,0,1,1.3-2.13,16.55,16.55,0,0,1,4.77-1.41,3.36,3.36,0,0,1,2.61.87c5.5,6.33,10,13.14,9.59,22.05a2.47,2.47,0,0,0,.78,1.94c2.65,1.47,5.41,2.76,8.12,4.1l0.27-.56L188,146.63l0.25-.6,4.35,0.34,0.09-.44-5.94-3.18,0.33-.68,4.43,0.33a68.27,68.27,0,0,0-5.94-3.68A8.3,8.3,0,0,1,184,137a7.87,7.87,0,0,1,2.2-1.37c1.72-.38,3.5-0.48,5.25-0.69V134c-2-.08-4-0.27-6-0.21-1.49,0-2.8-.08-3-1.81s-2.4-3.93.45-5.5c1.76-1,3.57-1.87,5.36-2.8l-0.05-.47h-4.53l-0.22-.73,8.15-4.78-0.1-.46-6.3,1.09,0.31-4.17L177,118.48l-0.42-.88c2.73-1.52,5.45-3.06,8.19-4.56,5.21-2.87,10.63-5.17,16.57-6,3.2-.42,6.08.34,7.75,3.31C209.82,111.58,209.84,113.15,210.17,114.62ZM111.46,88l0.6,1.37a12.36,12.36,0,0,0-2.89,1.55c-2.83,2.82-2.93,6.49-3.07,10.19-0.07,1.86.23,3,2.31,3.18a0.89,0.89,0,0,1,.23.41l-1.16,1.62,0.22,0.7c2.43-.17,4.89-0.13,7.28-0.54,5.13-.87,10-2.71,15.37-2.8,4.51-.07,8,0.61,10.2,5.07a6.75,6.75,0,0,0-.81-3.1c-1.31-2.3-2.8-4.5-4.11-6.81-3.25-5.71-7.25-10.66-13.08-14-2.09-1.2-4-1.59-6-.2C114.86,85.73,113.21,86.82,111.46,88Zm-26,55.65,2.06,3.46a1.76,1.76,0,0,0,.18-1.52c-1.89-6.09-3.31-12.2-1.68-18.63a7.75,7.75,0,0,0-.35-2.79l4-4.89L89,118.64a51.1,51.1,0,0,0-4.13,3.77c-2,2.2-2.23,4.58-.8,7.36,0.65,1.27.41,3,.39,4.58a1.8,1.8,0,0,1-1.13,1.11,1.8,1.8,0,0,1-1.1-.65c0.95-2.53-.44-3.47-2.56-4.08a2.35,2.35,0,0,1-.62-1.28,13.8,13.8,0,0,1-.87-2.74c-0.37-2.83-1.21-5.68.8-8.36a21.52,21.52,0,0,0,1.89-4c-1.93,1.33-2.51,3.67-5.23,4-3.41.38-2.72-2.86-4.08-4.45-0.54,2.79.62,4.84,2.91,5.66a3.74,3.74,0,0,1,2,1.25c1.56,2.88-.1,6.86-3.36,8.31-0.41-2.52-.77-5-1.25-7.53a8.67,8.67,0,0,0-.88-1.92c-0.37.57-1.07,1.13-1.07,1.7q-0.13,10.08,0,20.16a2.21,2.21,0,0,0,1.35,1.62c1.63,0.35,1.42,1.13,1.1,2.37-0.37,1.44-.85,3.09-0.48,4.44A72.45,72.45,0,0,0,74.9,158a2,2,0,0,0,.67.48L77,157.45c1.06,0.38,2.2,1.1,2.51.84,1.45-1.21,4.38-.93,4.12-3.91l2.11,0.17-4.8-8,0.39-.58C84.07,147.55,83.83,144.67,85.43,143.63Zm25.75,24.75,0,0.75c2,0,4.09.16,6.11,0,3.11-.3,3.46-0.21,3.35,2.83A18.8,18.8,0,0,0,126,185.75a31.45,31.45,0,0,0,3.14,2.64c-1.91-3.36-3.84-6.32-5.35-9.49a10,10,0,0,1,.89-10.19c1.26,4.41,2.48,8.76,6.63,11.79-3.82-8.14-4.24-10.22-2.39-13.06,2.2,5.47,5.09,10.23,9.46,13.9a3.7,3.7,0,0,0-.64-1.59c-1.9-3.59-3.81-7.17-5.62-10.8a2.34,2.34,0,0,1,0-1.85,1.67,1.67,0,0,1,1.52-.25c3.9,1.62,8,3,11.58,5.1,3,1.73,5.42,4.35,8.32,6.76-3.46-6.49-9.15-10.23-15-13.87,5.48,0.49,9.94,3.07,14.26,6.1a21.28,21.28,0,0,0-7.7-6.7c-1.65-.9-3-2.49-4.75-3-1.93-.57-4.78-1.16-6.06-0.2-5.28,4-11.18,5.71-17.53,6.48C114.92,167.75,113.05,168.09,111.18,168.38ZM85,161.25l-0.45-.42a1.26,1.26,0,0,0-.46.13c-8.73,7.32-18.17,13.49-28.89,17.52a3,3,0,0,0-2.16,3.24c0.05,3.4.69,6.66,3,9.3,3.16,3.62,7.48,5.12,12,6.23a4.14,4.14,0,0,0,1.5-.17l-11.32-6.4L74,182.59l-0.38-.8-7.29,2.56L66,183.69l11.52-7.38-0.43-.65a24.19,24.19,0,0,1-2.54,1.45c-5.33,2.27-10.68,4.53-16.05,6.7a4.39,4.39,0,0,1-2-.27,10.3,10.3,0,0,1,1-2.1,4.12,4.12,0,0,1,1.49-.89,90.7,90.7,0,0,0,21.37-15C81.89,164.1,83.46,162.68,85,161.25Zm24-28.38,0.92,0.2a9.21,9.21,0,0,0,.61-2.55c-0.25-4.61-5.48-9.4-10.13-9.38a4.83,4.83,0,0,0-4.5,3.64c-0.34,1.87-1,3.78-.83,5.61a72.66,72.66,0,0,0,1.87,9.38A2.09,2.09,0,0,0,98.29,141c3.2,0.6,9.18-2.14,9.77-5.24-2.56-1.52-2.62,1.69-4.58,2.5-0.59-1.34-1.91-2.93-1.55-3.83,0.88-2.19,2.54-4.09,5.5-3l0.15-3.41,0.76,0Zm49.38,19.4c-2.06.48-4.47-3.45-6.23,1-0.51-.77-0.82-1.16-1.05-1.6-1.31-2.47-3.16-3.28-5.78-2a6.62,6.62,0,0,1-1.47.24c-4,.9-8.1,1.64-12.06,2.79-2.1.61-4,1.92-6.23,3,5,3.53,29.46,2.94,34.24-2.13h-3.34Zm21.2-17.82c-2.5-3.81-4.82-7.4-7.24-10.92a1.88,1.88,0,0,0-1.66-.58,23.12,23.12,0,0,0-3.11,1.4L175,144.62l4.33-.35m-40.4,33.3,3.29-2.49c0.89,2.27-3.25,2.83-1.14,4.92a20.87,20.87,0,0,0,3.48,2.44,17.82,17.82,0,0,0,1.38,3.33,7.35,7.35,0,0,0,2.36,2.14,13.32,13.32,0,0,0,3,.88,42.85,42.85,0,0,0,.31-4.62c0-.83-0.69-1.62-0.81-2.47-0.38-2.78-1.81-4-4.68-3.71l0.78-2.27c-3.44-.93-5.28-5.32-9.74-3.86L136,170.25l-0.6.37Zm-49.67,4.07a2.66,2.66,0,0,0,1,.27,23.41,23.41,0,0,0,9.84-11.76,1.36,1.36,0,0,0-.46-1.23c-1.79-1.09-3.65-2.08-5.42-3.08l-2.67,9.48-4.15,4.31,0.48,0.47,3-1.54,0.37,0.63Zm40.83-58.58c-2.26-1.94-4.18-2.27-5.81-1-2.68,2.06-2.9,4.34-1.15,7.17,1.25,2,3,1.74,4.84,1,2.55-1,3.21-2.53,2.45-5.34l-2.26-.27-0.5-.81ZM108,168.31c-1.74-.4-3.12-1.48-3.9.68-2.65,7.38-7.73,12.69-14.27,16.77A16.08,16.08,0,0,0,88.28,187C97.35,183.54,104,177.62,108,168.31Zm54.1,6.28-1.1.33c0.38,4.67.62,9.35,1.19,14,0.33,2.66,2,3.1,4.33,1.47-3.73-1.6-4.25-3.44-3-11.26,2.07,0.56,4.37.66,3.81,3.84,2.86,1,1.49,3.72,2.38,5.75a5.08,5.08,0,0,0,1.25-3.37C170,180,165.12,178.09,162.07,174.59ZM92.33,124.53l-0.7-.1c-0.41,2.71-1,5.41-1.2,8.13a24.35,24.35,0,0,0,3.1,14.38c0.33,0.58,1.37.76,2.08,1.12,0.35-1,.75-1.95,1-3a1.83,1.83,0,0,0-.55-0.8,21.66,21.66,0,0,1-4.26-13.77C91.9,128.54,92.16,126.54,92.33,124.53ZM166,136.78a36.61,36.61,0,0,0-2.46-4.15c-1.35-1.74-3.16-1.53-4.93-.6s-2,2.06-.88,3.65a2.86,2.86,0,0,1,0,1.35c-4.5-.57-4.5-0.57-5.38,1.55Zm-60,26.32h8.44c-2.2-1.1-1.87-1.28-3-3.41-0.63-1.15-2.62-1.56-4-2.31a26.87,26.87,0,0,0-1.23,3.1A13.4,13.4,0,0,0,106,163.11Zm55.93-19.26a13.63,13.63,0,0,0-11.53,2.93,12.78,12.78,0,0,0,8.95,2.43L155,146.85a2.54,2.54,0,0,1,.5-0.9C157.61,145.23,159.77,144.54,161.93,143.85Zm-47.39,21c3.27,0.85,9.18-.69,10.16-2.54l-7.07-2.41C118.62,163.49,118.54,163.63,114.54,164.87Zm-11.07-2.49-3.7-5.54c-1.17,1.1-2.31,2-3.27,3.1a1.33,1.33,0,0,0,.86,2.38A50.79,50.79,0,0,0,103.47,162.38ZM131,119.83l2.67,7.63a18.82,18.82,0,0,0,1.58-3.58c0.23-1.15.46-3-.15-3.45C134.22,119.75,132.6,120,131,119.83Zm-44.12,62-4.87,4,0.4,0.66c1.3-.55,2.62-1.05,3.88-1.68C88.6,183.65,88.6,183.1,86.88,181.78Zm27.06-22.36,0.45-.65c-0.73-2-4.16-4.06-6.91-3.93ZM83.41,195.35l-0.17-.69-6.1,2.43C80.37,198.45,81.85,196.81,83.41,195.35ZM76,115.8l1,0.17L78,108.34l-0.62-.11ZM79,126l0.46-.05v-4.83l-0.46,0V126Z"/>
    <path class="cls-1" d="M210.17,114.62c-0.34-1.47-.36-3-1-4.23-1.68-3-4.56-3.73-7.75-3.31-5.95.78-11.37,3.08-16.57,6-2.74,1.51-5.46,3-8.19,4.56l0.42,0.88,8.44-4.29-0.31,4.17,6.3-1.09,0.1,0.46-8.15,4.78,0.22,0.73h4.53l0.05,0.47c-1.79.93-3.59,1.83-5.36,2.8-2.86,1.57-.66,3.66-0.45,5.5s1.5,1.85,3,1.81c2-.06,4,0.13,6,0.21v0.92c-1.75.21-3.53,0.31-5.25,0.69A7.87,7.87,0,0,0,184,137a8.3,8.3,0,0,0,1.58,1.71,68.27,68.27,0,0,1,5.94,3.68l-4.43-.33-0.33.68,5.94,3.18-0.09.44-4.35-.34-0.25.6,3.49,2.32-0.27.56c-2.72-1.35-5.47-2.64-8.12-4.1a2.47,2.47,0,0,1-.78-1.94c0.37-8.91-4.09-15.73-9.59-22.05a3.36,3.36,0,0,0-2.61-.87,16.55,16.55,0,0,0-4.77,1.41,2.64,2.64,0,0,0-1.3,2.13,30.52,30.52,0,0,0,2.59,6.16c2.75,4.82,5.08,9.74,5.18,15.42,0,1.46-.74,3.41-0.05,4.24s2.77,0.56,4.19.93c8.84,2.34,17.61,5,26.52,7,5.63,1.29,11.47,1.73,17.22,2.49a11.61,11.61,0,0,0,2.51-.3l-8.7-10.6,0.5-.36,12.95,12.45c-4.15.21-7.76,0.73-11.32,0.49-9-.6-17.62-3.14-26.22-5.73a119.26,119.26,0,0,0-15.57-3.51,9.75,9.75,0,0,0-6.11,1.3c-3.94,2.41-7.85,4.67-12.45,5.53a8.79,8.79,0,0,0-2,1.13c3,2.26,5.65,4.17,8.19,6.25,4.52,3.68,9.08,7.34,12,12.57,2.22,4,2,7.73-.71,10.89a7,7,0,0,1-1.1.8,4,4,0,0,1,.13-1c2.74-5.13,2.62-7.92-1.77-11.83a129.87,129.87,0,0,0-14.26-10.84c-4-2.65-8.37-4.65-12.46-6.87a44.58,44.58,0,0,0,6.65-1.26c5.09-1.71,10.16-3.55,15.09-5.69,3.29-1.43,4.72-4.57,5.43-8a3.44,3.44,0,0,0-3.27-4.32c-3.62,0-7.23.4-10.85,0.61-0.53,0-1.06,0-2.29,0,4.94-2.8,9.62-3.11,14.8-2.42-0.19-3.23-2-5.35-3.26-7.7-0.57-1.1-1.56-2.07-1.85-3.22-1.7-6.73-5.8-11.82-11.17-15.81-6.13-4.55-10.85-10.26-15.16-16.43A53.55,53.55,0,0,0,124.47,83.4c-4.87-3.47-4.12-3.27-9.54-.24-3.5,2-6.14,5.45-9.13,8.3a6.58,6.58,0,0,1-1.91,1.69L107,86.37l-0.52-.49a30.94,30.94,0,0,0-11.22,9.49c-3,4-5.53,8.44-8.66,12.6,0.94-2.49,1.73-5,2.86-7.44a57.17,57.17,0,0,1,4.28-7.61,48.16,48.16,0,0,1,5.36-6.55c1.93-2,4.17-3.64,6-5.72-10,2.78-16.06,10-21,18.58,1.37-6.25,4.92-11.3,8.6-16.33-7.74,5-12.44,12.49-16.57,20.43A49.54,49.54,0,0,1,95.36,76.45l-0.59-.84a15.53,15.53,0,0,0-3.11,1.55,67.74,67.74,0,0,0-14.59,17,69.17,69.17,0,0,0-9.48,22.95,2.3,2.3,0,0,1-.34.61l-0.75-.18c0.56-2.52,1-5.08,1.71-7.57A74.68,74.68,0,0,1,89,75.55c1.33-1.28,2.09-2.62,1.74-4.39a93.31,93.31,0,0,0-2.43-10.83c-0.61-1.89-.32-3,1-4.1s5.23-1.31,6.4-.35a2,2,0,0,1,.47,2A3.26,3.26,0,0,0,94.91,57a8.19,8.19,0,0,0-3.63.39c-0.38.18-.26,2,0,2.93,1,3.15,2.52,6.16,3.29,9.36,0.5,2.1,1.31,2.81,3.34,2.66a39.45,39.45,0,0,1,22.09,5A55.41,55.41,0,0,1,138.87,94.5c4.08,5.81,8.31,11.4,14,15.82,2.6,2,4.65,4.76,7.14,6.94a5.26,5.26,0,0,0,3.64,1.3c5.81-.78,10.7-4,15.89-6.39a102.33,102.33,0,0,1,14.76-6,31.76,31.76,0,0,1,10.86-.72C209.19,105.77,211.5,110.35,210.17,114.62Z"/>
    <path class="cls-1" d="M111.46,88c1.75-1.16,3.4-2.25,5-3.35,2.06-1.39,3.92-1,6,.2,5.83,3.34,9.83,8.29,13.08,14,1.31,2.3,2.8,4.51,4.11,6.81a6.75,6.75,0,0,1,.81,3.1c-2.17-4.46-5.69-5.14-10.2-5.07-5.36.08-10.24,1.93-15.37,2.8-2.39.4-4.85,0.37-7.28,0.54l-0.22-.7,1.17-1.63a0.92,0.92,0,0,0-.23-0.41c-2.07-.13-2.38-1.32-2.31-3.18,0.15-3.7.24-7.37,3.07-10.19a12.36,12.36,0,0,1,2.89-1.55Zm23.43,14.78,1.09-.65-2.28-3.46-0.8.48Z"/>
    <path class="cls-1" d="M85.43,143.63c-1.6,1-1.36,3.92-4.07,2.37l-0.39.58,4.8,8-2.11-.17c0.26,3-2.67,2.7-4.12,3.91-0.31.26-1.45-.46-2.51-0.84l-1.45,1.05A2,2,0,0,1,74.9,158a72.45,72.45,0,0,1-3.11-8.09c-0.36-1.34.11-3,.48-4.44,0.32-1.23.53-2-1.1-2.37a2.21,2.21,0,0,1-1.35-1.62q-0.12-10.08,0-20.16c0-.57.7-1.14,1.07-1.7a8.67,8.67,0,0,1,.88,1.92c0.47,2.49.84,5,1.25,7.53,3.26-1.45,4.92-5.43,3.36-8.31a3.74,3.74,0,0,0-2-1.25c-2.28-.82-3.44-2.86-2.91-5.66,1.36,1.59.67,4.83,4.08,4.45,2.73-.3,3.3-2.64,5.23-4a21.52,21.52,0,0,1-1.89,4c-2,2.68-1.16,5.53-.8,8.36a13.8,13.8,0,0,0,.87,2.74,2.35,2.35,0,0,0,.62,1.28c2.12,0.61,3.51,1.55,2.56,4.08a1.8,1.8,0,0,0,1.1.65,1.8,1.8,0,0,0,1.13-1.11c0-1.54.26-3.32-.39-4.58-1.43-2.78-1.16-5.16.8-7.36A51.1,51.1,0,0,1,89,118.64l0.66,0.62-4,4.89a7.75,7.75,0,0,1,.35,2.79c-1.63,6.43-.22,12.54,1.68,18.63a1.76,1.76,0,0,1-.18,1.52Z"/>
    <path class="cls-1" d="M111.18,168.38c1.87-.29,3.74-0.63,5.62-0.86,6.36-.77,12.26-2.52,17.53-6.48,1.29-1,4.14-.37,6.06.2,1.73,0.51,3.1,2.1,4.75,3a21.28,21.28,0,0,1,7.7,6.7c-4.32-3-8.78-5.61-14.26-6.1,5.88,3.64,11.57,7.38,15,13.87-2.9-2.41-5.34-5-8.32-6.76-3.63-2.11-7.68-3.49-11.58-5.1a1.67,1.67,0,0,0-1.52.25,2.34,2.34,0,0,0,0,1.85c1.82,3.63,3.73,7.21,5.62,10.8a3.7,3.7,0,0,1,.64,1.59c-4.38-3.67-7.26-8.43-9.46-13.9-1.85,2.84-1.43,4.92,2.39,13.06-4.15-3-5.37-7.38-6.63-11.79a10,10,0,0,0-.89,10.19c1.5,3.17,3.43,6.13,5.35,9.49a31.45,31.45,0,0,1-3.14-2.64,18.8,18.8,0,0,1-5.33-13.83c0.11-3-.24-3.13-3.35-2.83-2,.2-4.07,0-6.11,0Z"/>
    <path class="cls-1" d="M85,161.25c-1.56,1.43-3.13,2.85-4.67,4.3a90.7,90.7,0,0,1-21.37,15,4.12,4.12,0,0,0-1.49.89,10.3,10.3,0,0,0-1,2.1,4.39,4.39,0,0,0,2,.27c5.38-2.17,10.72-4.43,16.05-6.7a24.19,24.19,0,0,0,2.54-1.45l0.43,0.65L66,183.69l0.33,0.66,7.29-2.56,0.38,0.8-15.77,8.1,11.32,6.4a4.14,4.14,0,0,1-1.5.17c-4.49-1.11-8.82-2.61-12-6.23-2.3-2.64-2.94-5.89-3-9.3a3,3,0,0,1,2.16-3.24c10.72-4,20.16-10.2,28.89-17.52a1.26,1.26,0,0,1,.46-0.13Z"/>
    <path class="cls-1" d="M109.06,135.79c-0.58,3.1-7.57,5.84-10.77,5.24a2.09,2.09,0,0,1-1.36-1.26,66.73,66.73,0,0,1-1.87-9.38c-0.18-1.82.5-3.74,0.83-5.61a4.83,4.83,0,0,1,4.5-3.64c4.65,0,9.88,4.77,10.13,9.38a2.87,2.87,0,0,1,0,1.49C110.22,131.93,110.91,133.07,109.06,135.79Z"/>
    <path class="cls-1" d="M158.37,152.27l-1.92,1.36h3.34c-4.78,5.07-29.2,5.66-34.24,2.13,2.24-1.12,4.13-2.43,6.23-3,4-1.15,8-1.89,12.06-2.79a6.62,6.62,0,0,0,1.47-.24c2.62-1.31,4.46-.5,5.78,2,0.23,0.43.54,0.83,1.05,1.6C153.9,148.81,156.31,152.75,158.37,152.27Zm-7.59,3.07c-3.17-4.11-5.51-5.85-8.68-1.32Zm-19.88-.72c2.46,3.09,5.84,2.73,7.5-.69C135.83,153.28,133.43,152.95,130.9,154.61Z"/>
    <path class="cls-3" d="M175,144.62l-7.45-20.26a23.12,23.12,0,0,1,3.11-1.4,1.88,1.88,0,0,1,1.66.58c2.42,3.52,4.73,7.11,7.24,10.92,1.5,9.61.36,9.74,0.57,9.78,0,2.35-.81-2.41-0.81,0Z"/>
    <path class="cls-1" d="M138.93,177.57l-3.56-6.95,0.6-.37,1.15,1.62c4.46-1.45,6.31,2.94,9.74,3.86L146.09,178c2.87-.31,4.29.93,4.68,3.71,0.12,0.85.78,1.64,0.81,2.47a42.85,42.85,0,0,1-.31,4.62,13.32,13.32,0,0,1-3-.88,7.35,7.35,0,0,1-2.36-2.14,17.82,17.82,0,0,1-1.38-3.33,20.87,20.87,0,0,1-3.48-2.44c-2.1-2.1,2-2.66,1.14-4.92Zm8.57,4.11c-1.64,2.57-.22,3.18,1.44,3.7Z"/>
    <path class="cls-1" d="M89.26,181.64l2-2.43-0.37-.63-3,1.54-0.48-.47,4.15-4.31,2.67-9.48c1.77,1,3.63,2,5.42,3.08a1.36,1.36,0,0,1,.46,1.23,23.41,23.41,0,0,1-9.84,11.76A2.66,2.66,0,0,1,89.26,181.64Zm6.36-7.29,1.23-.26-1.39-5.55-0.66.13Z"/>
    <path class="cls-1" d="M130.09,123.06l-2.44.73,0.5,0.81,2.26,0.27c0.76,2.8.1,4.3-2.45,5.34-1.81.73-3.59,1-4.84-1-1.74-2.83-1.52-5.1,1.15-7.17C125.9,120.79,127.83,121.13,130.09,123.06Z"/>
    <path class="cls-1" d="M108,168.31c-4,9.3-10.61,15.23-19.69,18.66a16.08,16.08,0,0,1,1.52-1.22c6.54-4.07,11.62-9.38,14.27-16.77C104.84,166.83,106.23,167.91,108,168.31Z"/>
    <path class="cls-1" d="M162.07,174.59c3.05,3.5,8,5.44,8.81,10.75a5.08,5.08,0,0,1-1.25,3.37c-0.88-2,.48-4.73-2.38-5.75,0.56-3.18-1.74-3.28-3.81-3.84-1.2,7.82-.69,9.66,3,11.26-2.35,1.63-4,1.19-4.33-1.47-0.57-4.64-.81-9.33-1.19-14Z"/>
    <path class="cls-1" d="M92.33,124.53c-0.17,2-.43,4-0.49,6a21.66,21.66,0,0,0,4.26,13.77,1.83,1.83,0,0,1,.55.8c-0.28,1-.67,2-1,3-0.71-.36-1.75-0.54-2.08-1.12a24.35,24.35,0,0,1-3.1-14.38c0.23-2.72.79-5.42,1.2-8.13Z"/>
    <path class="cls-1" d="M166,136.78l-13.62,1.81c0.88-2.12.88-2.12,5.38-1.55a2.86,2.86,0,0,0,0-1.35c-1.09-1.59-.77-2.78.88-3.65s3.57-1.14,4.93.6A36.61,36.61,0,0,1,166,136.78Z"/>
    <path class="cls-1" d="M106,163.11a13.4,13.4,0,0,1,.18-2.62,26.87,26.87,0,0,1,1.23-3.1c1.37,0.75,3.36,1.16,4,2.31,1.17,2.13.84,2.31,3,3.41H106Z"/>
    <path class="cls-1" d="M161.93,143.85c-2.16.69-4.32,1.38-6.47,2.1a2.54,2.54,0,0,0-.5.9l4.38,2.35a12.78,12.78,0,0,1-8.95-2.43A13.63,13.63,0,0,1,161.93,143.85Z"/>
    <path class="cls-1" d="M114.54,164.87c4-1.25,4.08-1.38,3.1-5l7.07,2.41C123.72,164.19,117.8,165.72,114.54,164.87Z"/>
    <path class="cls-1" d="M103.47,162.38a50.79,50.79,0,0,1-6.11-.07,1.33,1.33,0,0,1-.86-2.38c1-1.08,2.1-2,3.27-3.1Z"/>
    <path class="cls-1" d="M131,119.83c1.6,0.18,3.21-.09,4.1.6,0.6,0.47.38,2.3,0.15,3.45a18.82,18.82,0,0,1-1.58,3.58Z"/>
    <path class="cls-1" d="M86.88,181.78c1.72,1.32,1.71,1.87-.58,3-1.26.63-2.59,1.12-3.88,1.68l-0.4-.66Z"/>
    <path class="cls-1" d="M113.95,159.43l-6.46-4.57c2.75-.13,6.18,2,6.91,3.93Z"/>
    <path class="cls-1" d="M83.41,195.35c-1.55,1.46-3,3.1-6.27,1.73l6.1-2.43Z"/>
    <path class="cls-1" d="M76,115.8l1.43-7.57L78,108.34,76.93,116Z"/>
    <path class="cls-1" d="M79,126v-4.86l0.46,0V126Z"/>
    <path d="M134.89,102.76l-2-3.64,0.8-.48L136,102.1Z"/>
    <path d="M150.78,155.34L142.1,154C145.27,149.49,147.61,151.23,150.78,155.34Z"/>
    <path d="M130.9,154.61c2.53-1.67,4.94-1.33,7.5-.69C136.74,157.34,133.36,157.7,130.9,154.61Z"/>
    <path d="M147.5,181.68l1.44,3.7C147.28,184.86,145.86,184.25,147.5,181.68Z"/>
    <path d="M95.62,174.36l-0.81-5.68,0.66-.13,1.39,5.55Z"/>
  </g>
</svg>
